<svg xmlns="http://www.w3.org/2000/svg" version="1.1" xmlns:xlink="http://www.w3.org/1999/xlink" width="256" height="256"><svg xmlns="http://www.w3.org/2000/svg" version="1.1" xmlns:xlink="http://www.w3.org/1999/xlink" width="256" height="256"><svg xmlns="http://www.w3.org/2000/svg" viewBox="0 0 256 256" fill="none"><path d="M 206 0 C 233.614 0 256 22.386 256 50 L 256 206 C 256 233.614 233.614 256 206 256 L 50 256 C 22.386 256 0 233.614 0 206 L 0 50 C 0 22.386 22.386 0 50 0 Z M 128 64 C 128 99.346 99.346 128 64 128 C 99.346 128 128 156.654 128 192 C 128 156.654 156.654 128 192 128 C 156.654 128 128 99.346 128 64 Z" fill="#FF5A00"></path></svg></svg><style>@media (prefers-color-scheme: light) { :root { filter: none; } }
@media (prefers-color-scheme: dark) { :root { filter: none; } }
</style></svg>